<svg id="Layer_1" enable-background="new 0 0 256 256" height="512" viewBox="0 0 256 256" width="512" xmlns="http://www.w3.org/2000/svg"><path d="m47.929 26.258c-.974 11.564-13.025 13.39-13.025 13.39 10.347.486 12.926 14.059 12.926 14.059.221-9.677 13.321-14.202 13.321-14.202-9.814-.588-13.222-13.247-13.222-13.247z" fill="#d5de58"/><path d="m61.241 38.007c-8.605-.515-11.832-12.024-11.864-12.141-.191-.703-.866-1.163-1.583-1.102-.725.066-1.298.642-1.359 1.367-.86 10.215-11.314 11.964-11.754 12.033-.763.115-1.313.79-1.273 1.56s.657 1.384 1.428 1.421c9.028.425 11.498 12.718 11.522 12.842.137.711.759 1.217 1.472 1.217.042 0 .084-.001.126-.005.764-.064 1.357-.693 1.375-1.46.195-8.509 12.192-12.777 12.313-12.819.675-.235 1.092-.914.994-1.623-.1-.706-.683-1.247-1.397-1.29zm-13.567 10.345c-1.356-3.13-3.708-6.907-7.586-8.876 2.931-1.405 6.409-3.913 8.202-8.273 1.551 3.071 4.2 6.88 8.334 8.723-3.008 1.639-6.923 4.405-8.95 8.426z" fill="#3a312a"/><path d="m26.231 43.238c-.689 8.179-9.212 9.47-9.212 9.47 7.318.344 9.142 9.944 9.142 9.944.156-6.844 9.422-10.045 9.422-10.045-6.942-.414-9.352-9.369-9.352-9.369z" fill="#d5de58"/><path d="m35.672 51.11c-5.767-.345-7.973-8.186-7.994-8.265-.19-.702-.852-1.169-1.582-1.102-.726.065-1.299.642-1.36 1.368-.579 6.871-7.646 8.067-7.942 8.114-.763.115-1.313.79-1.273 1.56s.657 1.384 1.428 1.421c6.035.284 7.723 8.644 7.739 8.726.135.713.759 1.22 1.472 1.22.042 0 .083-.001.125-.005.765-.063 1.358-.694 1.376-1.461.13-5.71 8.331-8.634 8.413-8.662.676-.234 1.094-.913.996-1.622-.099-.707-.683-1.249-1.398-1.292zm-9.585 6.795c-.924-1.885-2.34-3.947-4.447-5.28 1.856-1.041 3.697-2.63 4.871-4.916 1.057 1.874 2.655 3.954 4.941 5.224-1.849 1.101-3.989 2.74-5.365 4.972z" fill="#3a312a"/><path d="m26.193 16.581c-.657 8.182-9.175 9.507-9.175 9.507 7.319.316 9.181 9.909 9.181 9.909.129-6.845 9.383-10.082 9.383-10.082-6.944-.389-9.389-9.334-9.389-9.334z" fill="#d5de58"/><path d="m35.665 24.417c-5.767-.323-8.004-8.154-8.026-8.233-.193-.701-.857-1.163-1.587-1.096-.725.068-1.297.647-1.355 1.373-.552 6.873-7.615 8.097-7.911 8.145-.762.119-1.31.796-1.267 1.566.042.77.663 1.382 1.433 1.415 6.036.261 7.757 8.614 7.773 8.695.138.711.76 1.214 1.471 1.214.043 0 .087-.002.131-.005.765-.066 1.356-.699 1.37-1.466.108-5.71 8.298-8.666 8.378-8.694.676-.236 1.09-.917.99-1.626-.099-.709-.686-1.249-1.4-1.288zm-9.558 6.831c-.932-1.882-2.356-3.938-4.468-5.262 1.851-1.048 3.687-2.644 4.851-4.935 1.064 1.87 2.67 3.944 4.962 5.205-1.846 1.107-3.978 2.755-5.345 4.992z" fill="#3a312a"/><circle cx="132.983" cy="132.928" fill="#8ac6dd" r="106"/><g fill="#3a312a"><path d="m132.983 25.428c-59.276 0-107.5 48.224-107.5 107.5s48.224 107.5 107.5 107.5 107.5-48.224 107.5-107.5-48.224-107.5-107.5-107.5zm0 212c-57.622 0-104.5-46.878-104.5-104.5s46.878-104.5 104.5-104.5 104.5 46.878 104.5 104.5-46.879 104.5-104.5 104.5z"/><path d="m132.983 25.428c-39.908 0-72.375 48.224-72.375 107.5s32.467 107.5 72.375 107.5 72.375-48.224 72.375-107.5-32.467-107.5-72.375-107.5zm0 212c-38.253 0-69.375-46.878-69.375-104.5s31.122-104.5 69.375-104.5 69.375 46.878 69.375 104.5-31.122 104.5-69.375 104.5z"/><path d="m160.435 138.197c-.797-.015-1.511.647-1.524 1.476-.987 60.381-14.227 97.756-25.927 97.756-12.549 0-25.985-41.991-25.985-104.5s13.436-104.5 25.985-104.5c11.625 0 24.839 37.121 25.917 97.092.015.819.683 1.473 1.499 1.473h.027c.829-.015 1.488-.698 1.473-1.526-.871-48.497-11.302-100.039-28.916-100.039-18.144 0-28.985 54.658-28.985 107.5s10.842 107.5 28.985 107.5c9.962 0 16.533-16.286 20.292-29.948 5.128-18.639 8.194-43.769 8.636-70.759.011-.829-.649-1.512-1.477-1.525z"/><path d="m211.237 83.272c-18.599-13.277-43.711-21.282-70.71-22.54-.826-.034-1.53.602-1.568 1.429-.039.828.601 1.53 1.429 1.568 54.446 2.536 97.096 32.932 97.096 69.198 0 38.254-46.878 69.375-104.5 69.375s-104.5-31.122-104.5-69.375c0-36.724 43.227-67.144 98.409-69.254.828-.032 1.474-.728 1.442-1.556-.032-.829-.749-1.479-1.556-1.442-56.802 2.174-101.296 33.91-101.296 72.253 0 39.908 48.224 72.375 107.5 72.375s107.5-32.467 107.5-72.375c0-18.558-10.387-36.193-29.246-49.656z"/><path d="m132.983 103.943c-52.842 0-107.5 10.842-107.5 28.985 0 18.144 54.658 28.985 107.5 28.985s107.5-10.842 107.5-28.985-54.658-28.985-107.5-28.985zm0 54.971c-62.509 0-104.5-13.436-104.5-25.985s41.991-25.985 104.5-25.985 104.5 13.436 104.5 25.985-41.991 25.985-104.5 25.985z"/></g><ellipse cx="61.783" cy="194.653" fill="#f16c7a" rx="44.766" ry="44.765" transform="matrix(.16 -.987 .987 .16 -140.254 224.458)"/><path d="m61.783 148.388c-25.511 0-46.266 20.755-46.266 46.266s20.755 46.266 46.266 46.266 46.266-20.755 46.266-46.266-20.755-46.266-46.266-46.266zm0 89.531c-23.857 0-43.266-19.409-43.266-43.266s19.409-43.266 43.266-43.266 43.266 19.409 43.266 43.266-19.409 43.266-43.266 43.266z" fill="#3a312a"/><path d="m69.558 195.368 14.043-14.043c2.136-2.135 2.136-5.598 0-7.733-2.134-2.136-5.599-2.136-7.733 0l-14.043 14.043-14.043-14.043c-2.134-2.136-5.599-2.136-7.733 0-2.136 2.135-2.136 5.598 0 7.733l14.043 14.043-14.042 14.042c-2.136 2.135-2.136 5.598 0 7.733 1.067 1.068 2.467 1.602 3.866 1.602s2.799-.534 3.866-1.602l14.043-14.043 14.043 14.043c1.067 1.068 2.467 1.602 3.866 1.602s2.799-.534 3.866-1.602c2.136-2.135 2.136-5.598 0-7.733z" fill="#87796f"/><path d="m71.679 195.368 12.982-12.981c1.316-1.316 2.042-3.066 2.042-4.928 0-1.861-.725-3.611-2.041-4.926-1.315-1.317-3.065-2.042-4.927-2.042s-3.612.725-4.927 2.042l-12.982 12.982-12.982-12.982c-1.315-1.317-3.065-2.042-4.927-2.042s-3.612.725-4.927 2.041c-1.316 1.316-2.042 3.066-2.042 4.927 0 1.862.725 3.611 2.042 4.927l12.982 12.982-12.982 12.982c-1.317 1.316-2.042 3.066-2.042 4.927s.725 3.611 2.041 4.926c1.315 1.317 3.065 2.042 4.928 2.042s3.612-.725 4.927-2.042l12.982-12.982 12.981 12.981c1.315 1.317 3.065 2.042 4.928 2.042 1.862 0 3.612-.725 4.926-2.041 1.317-1.316 2.042-3.066 2.042-4.927s-.725-3.611-2.042-4.927zm10.86 20.715c-1.496 1.499-4.113 1.5-5.611 0l-14.042-14.043c-.293-.293-.677-.439-1.061-.439s-.768.146-1.061.439l-14.044 14.043c-1.496 1.499-4.112 1.5-5.611-.001-.75-.749-1.162-1.745-1.162-2.805s.413-2.056 1.163-2.806l14.042-14.043c.586-.586.586-1.536 0-2.121l-14.042-14.043c-.75-.749-1.163-1.746-1.163-2.806s.413-2.056 1.163-2.806c1.497-1.498 4.113-1.499 5.611 0l14.043 14.043c.563.563 1.559.563 2.121 0l14.043-14.043c.749-.749 1.745-1.162 2.806-1.162 1.06 0 2.057.413 2.806 1.163.75.749 1.163 1.746 1.163 2.805 0 1.06-.413 2.057-1.163 2.806l-14.043 14.042c-.281.281-.44.663-.44 1.061s.158.779.44 1.061l14.043 14.043c.75.749 1.162 1.745 1.162 2.805s-.412 2.057-1.163 2.807z" fill="#3a312a"/><path d="m219.543 150.388c-1.7 10.34-4.91 20.17-9.4 29.26 14.47-10.51 24.13-23.99 26.67-38.89-3.55 3.64-9.54 6.86-17.27 9.63z" fill="#6da4bd"/><path d="m207.193 185.238c-7.89 13.89-18.83 25.82-31.91 34.87-5.86 6.28-12.36 11.3-19.34 14.77 39.22-8.82 70.17-39.77 78.99-78.99-5.62 11.27-15.24 21.31-27.74 29.35z" fill="#6da4bd"/><path d="m220.053 118.868c.62 4.6.93 9.29.93 14.06s-.31 9.46-.93 14.06c11.21-4.28 17.43-9.23 17.43-14.06s-6.22-9.78-17.43-14.06z" fill="#6da4bd"/><path d="m210.143 86.208c4.49 9.09 7.7 18.92 9.4 29.26 7.73 2.77 13.72 5.99 17.27 9.63-2.54-14.9-12.2-28.38-26.67-38.89z" fill="#6da4bd"/><path d="m155.943 30.978c6.98 3.47 13.48 8.49 19.34 14.77 13.08 9.05 24.02 20.98 31.91 34.87 12.5 8.04 22.12 18.08 27.74 29.35-8.82-39.22-39.77-70.17-78.99-78.99z" fill="#6da4bd"/></svg>