<svg id="Capa_1" enable-background="new 0 0 512 512" height="512" viewBox="0 0 512 512" width="512" xmlns="http://www.w3.org/2000/svg"><g><g><path d="m419.748 273.971h-327.496c-5.523 0-10-4.477-10-10v-246.471c0-5.523 4.477-10 10-10h327.497c5.523 0 10 4.477 10 10v246.471c-.001 5.523-4.478 10-10.001 10z" fill="#fee2ca"/><circle cx="82.252" cy="172.138" fill="#ffcebf" r="46.168"/><path d="m133.037 372.054h-101.571v-102.963c0-28.048 22.737-50.785 50.785-50.785 28.048 0 50.785 22.737 50.785 50.785v102.963z" fill="#5f99d7"/><circle cx="256" cy="367.601" fill="#ffcebf" r="50.786"/><path d="m311.383 504.5h-110.766v-30.731c0-30.587 24.796-55.383 55.383-55.383 30.587 0 55.383 24.796 55.383 55.383z" fill="#e94444"/><circle cx="82.252" cy="367.601" fill="#ffcebf" r="50.786"/><path d="m137.635 504.5h-110.767v-30.731c0-30.587 24.796-55.383 55.383-55.383 30.587 0 55.383 24.796 55.383 55.383v30.731z" fill="#e94444"/><circle cx="429.748" cy="367.601" fill="#ffcebf" r="50.786"/><path d="m485.132 504.5h-110.767v-30.731c0-30.587 24.796-55.383 55.383-55.383 30.587 0 55.383 24.796 55.383 55.383v30.731z" fill="#e94444"/><path d="m193.128 7.5c-35.397 0-64.092 25.583-64.092 57.14 0 18.491 9.855 34.928 25.135 45.372l-6.915 23.307 39.763-11.798c2.011.17 4.048.26 6.109.26 35.397 0 64.092-25.583 64.092-57.14 0-31.558-28.695-57.141-64.092-57.141z" fill="#b3dafe"/><path d="m330.43 181.014c35.397 0 64.092 25.583 64.092 57.14 0 18.491-9.855 34.928-25.135 45.372l6.915 23.307-39.763-11.798c-2.011.17-4.048.26-6.109.26-35.397 0-64.092-25.583-64.092-57.14 0-31.558 28.695-57.141 64.092-57.141z" fill="#f9c6c6"/><path d="m419.748 7.5h-25.512c5.523 0 10 4.477 10 10v246.471c0 5.523-4.477 10-10 10h25.512c5.523 0 10-4.477 10-10v-246.471c0-5.523-4.477-10-10-10z" fill="#fed5b0"/><path d="m193.128 7.5c-3.375 0-6.687.236-9.921.684 30.685 4.252 54.171 27.907 54.171 56.456 0 31.558-28.695 57.14-64.092 57.14-2.061 0-4.098-.09-6.109-.26l-18.005 5.342-1.915 6.456 39.763-11.798c2.011.17 4.048.26 6.109.26 35.397 0 64.092-25.583 64.092-57.14s-28.696-57.14-64.093-57.14z" fill="#8ac9fe"/><path d="m394.522 238.155c0-31.558-28.695-57.14-64.092-57.14-3.375 0-6.688.236-9.921.684 30.685 4.252 54.171 27.907 54.171 56.456 0 18.491-9.855 34.928-25.135 45.372l5 16.851 21.758 6.456-6.915-23.307c15.279-10.444 25.134-26.881 25.134-45.372z" fill="#f9b1b1"/><path d="m82.252 125.97c-3.913 0-7.71.491-11.339 1.407 20.015 5.055 34.829 23.175 34.829 44.76s-14.814 39.705-34.829 44.76c3.628.916 7.426 1.407 11.339 1.407 25.498 0 46.167-20.67 46.167-46.167s-20.67-46.167-46.167-46.167z" fill="#ffbfb1"/><path d="m82.252 218.305c-3.9 0-7.691.454-11.339 1.286 22.587 5.154 39.447 25.351 39.447 49.499v102.963h22.677v-102.962c0-28.048-22.737-50.786-50.785-50.786z" fill="#3c87d0"/><path d="m256 316.815c-3.9 0-7.691.454-11.339 1.287 22.587 5.154 39.447 25.351 39.447 49.499s-16.86 44.345-39.447 49.499c3.648.832 7.439 1.286 11.339 1.286 28.048 0 50.786-22.737 50.786-50.785s-22.738-50.786-50.786-50.786z" fill="#ffbfb1"/><path d="m256 418.386c-3.887 0-7.678.404-11.339 1.166 25.148 5.233 44.045 27.516 44.045 54.217v30.73h22.677v-30.73c0-30.587-24.796-55.383-55.383-55.383z" fill="#d83131"/><path d="m82.252 316.815c-3.9 0-7.691.454-11.339 1.287 22.587 5.154 39.447 25.351 39.447 49.499s-16.86 44.345-39.447 49.499c3.648.832 7.439 1.286 11.339 1.286 28.048 0 50.786-22.737 50.786-50.785-.001-28.048-22.738-50.786-50.786-50.786z" fill="#ffbfb1"/><path d="m82.252 418.386c-3.887 0-7.678.404-11.339 1.166 25.148 5.233 44.045 27.516 44.045 54.217v30.73h22.677v-30.73c0-30.587-24.796-55.383-55.383-55.383z" fill="#d83131"/><path d="m429.748 316.815c-3.9 0-7.691.454-11.339 1.287 22.587 5.154 39.447 25.351 39.447 49.499s-16.86 44.345-39.447 49.499c3.648.832 7.439 1.286 11.339 1.286 28.048 0 50.786-22.737 50.786-50.785s-22.738-50.786-50.786-50.786z" fill="#ffbfb1"/><path d="m429.748 418.386c-3.887 0-7.678.404-11.339 1.166 25.148 5.233 44.045 27.516 44.045 54.217v30.73h22.677v-30.73c.001-30.587-24.795-55.383-55.383-55.383z" fill="#d83131"/></g><g><path d="m285.116 418.06c17.418-10.09 29.169-28.922 29.169-50.459 0-32.139-26.146-58.286-58.285-58.286s-58.286 26.147-58.286 58.286c0 21.537 11.751 40.369 29.169 50.459-20.05 10.522-33.767 31.538-33.767 55.71v30.73c0 4.142 3.358 7.5 7.5 7.5h110.766c4.143 0 7.5-3.358 7.5-7.5v-30.73c.001-24.172-13.715-45.188-33.766-55.71zm-72.402-50.459c0-23.868 19.418-43.286 43.286-43.286 23.867 0 43.285 19.418 43.285 43.286s-19.418 43.285-43.285 43.285c-23.868 0-43.286-19.418-43.286-43.285zm91.169 129.399h-95.766v-23.23c0-26.403 21.48-47.883 47.883-47.883 26.402 0 47.883 21.48 47.883 47.883z"/><path d="m458.865 418.06c17.418-10.09 29.17-28.922 29.17-50.459 0-32.139-26.147-58.286-58.286-58.286s-58.285 26.147-58.285 58.286c0 21.537 11.751 40.369 29.169 50.459-20.05 10.522-33.766 31.538-33.766 55.71v30.73c0 4.142 3.357 7.5 7.5 7.5h25.767c4.143 0 7.5-3.358 7.5-7.5s-3.357-7.5-7.5-7.5h-18.267v-23.23c0-26.403 21.48-47.883 47.883-47.883s47.884 21.48 47.884 47.883v23.23h-42.5c-4.143 0-7.5 3.358-7.5 7.5s3.357 7.5 7.5 7.5h50c4.143 0 7.5-3.358 7.5-7.5v-30.73c-.002-24.172-13.719-45.188-33.769-55.71zm-72.402-50.459c0-23.868 19.418-43.286 43.285-43.286 23.868 0 43.286 19.418 43.286 43.286s-19.418 43.286-43.286 43.286c-23.867-.001-43.285-19.419-43.285-43.286z"/><circle cx="193.128" cy="67.37" r="8.4"/><ellipse cx="162.119" cy="67.37" rx="8.4" ry="8.4" transform="matrix(.707 -.707 .707 .707 -.154 134.367)"/><circle cx="224.137" cy="67.37" r="8.4"/><path d="m383.493 304.7-5.423-18.277c1.957-1.569 3.802-3.224 5.537-4.951h36.14c9.649 0 17.5-7.851 17.5-17.5v-246.472c0-9.649-7.851-17.5-17.5-17.5h-327.496c-9.649 0-17.5 7.851-17.5 17.5v21.789c0 4.142 3.358 7.5 7.5 7.5s7.5-3.358 7.5-7.5v-21.789c0-1.378 1.122-2.5 2.5-2.5h55.081c-15.752 11.867-25.797 29.712-25.797 49.64 0 18.688 8.662 36.008 23.952 48.268l-5.423 18.277c-1.698 5.725 3.649 11.004 9.324 9.324l38.442-11.406c1.776.118 3.552.178 5.296.178 39.476 0 71.592-28.998 71.592-64.641 0-19.928-10.045-37.773-25.797-49.64h180.825c1.379 0 2.5 1.122 2.5 2.5v246.471c0 1.378-1.121 2.5-2.5 2.5h-24.912c4.914-9.118 7.187-19.023 7.187-28.316 0-35.643-32.116-64.64-71.592-64.64-52.452 0-87.631 49.732-64.35 92.957h-125.6c-.903-20.285-12.426-38.728-30.292-48.525 15.958-9.769 25.732-27.09 25.732-45.809 0-26.958-20.046-49.474-46.167-53.145v-44.704c0-4.142-3.358-7.5-7.5-7.5s-7.5 3.358-7.5 7.5v44.716c-26.053 3.661-46.167 26.086-46.167 53.132 0 19.369 10.316 36.372 25.74 45.81-18.074 9.909-30.357 29.117-30.357 51.143v98.491.019s0 .013 0 .019c0 20.792 11.16 40.008 29.169 50.44-20.05 10.522-33.767 31.538-33.767 55.71v30.73c0 4.142 3.358 7.5 7.5 7.5h110.767c4.142 0 7.5-3.358 7.5-7.5v-30.73c0-24.171-13.716-45.187-33.767-55.71 17.706-10.257 29.169-29.295 29.169-50.459v-86.129h136.804c13.11 13.087 32.053 21.324 53.09 21.324 1.744 0 3.521-.06 5.296-.178l38.442 11.406c5.706 1.689 11.012-3.626 9.322-9.323zm-133.773-240.06c0 27.372-25.387 49.641-56.592 49.641-5.404 0-6.046-.604-8.242.05l-26.506 7.864 2.982-10.05c.926-3.123-.269-6.487-2.958-8.325-13.896-9.499-21.867-23.779-21.867-39.18 0-27.372 25.387-49.64 56.592-49.64 31.204 0 56.591 22.269 56.591 49.64zm-206.136 107.498c0-21.321 17.346-38.667 38.667-38.667s38.667 17.346 38.667 38.667-17.346 38.667-38.667 38.667-38.667-17.346-38.667-38.667zm86.551 301.632v23.23h-95.767v-23.23c0-26.403 21.48-47.883 47.883-47.883s47.884 21.48 47.884 47.883zm-47.884-62.884c-23.758 0-43.084-19.243-43.277-42.931-.001-.116-.009-.24-.009-.355 0-23.869 19.419-43.286 43.285-43.286 23.868 0 43.286 19.418 43.286 43.286.001 23.627-19.201 43.286-43.285 43.286zm43.286-136.915v54.636c-23.298-25.868-63.55-25.53-86.571 0v-59.516c0-23.868 19.417-43.286 43.285-43.286s43.286 19.418 43.286 43.286zm236.66 11.689 2.982 10.05c-35.01-10.387-23.954-7.915-34.749-7.915-19.27 0-36.291-8.501-46.503-21.399-.171-.215-.345-.428-.512-.644-4.509-5.891-7.62-12.671-8.909-19.972-.012-.068-.023-.136-.034-.205-5.161-30.069 21.461-57.06 55.957-57.06 33.187 0 59.899 25.243 56.255 55.023-.02.163-.036.326-.058.489-1.699 12.694-9.096 24.849-21.472 33.308-2.688 1.838-3.883 5.202-2.957 8.325z"/><path d="m330.43 232.484c-4.639 0-8.4 3.761-8.4 8.4s3.761 8.4 8.4 8.4 8.4-3.761 8.4-8.4-3.761-8.4-8.4-8.4z"/><circle cx="361.439" cy="240.884" r="8.4"/><ellipse cx="299.421" cy="240.884" rx="8.4" ry="8.4" transform="matrix(.987 -.16 .16 .987 -34.719 51.073)"/></g></g></svg>